<mxfile host="app.diagrams.net" modified="2023-03-05T14:27:25.042Z" agent="5.0 (Windows NT 10.0; Win64; x64) AppleWebKit/537.36 (KHTML, like Gecko) Chrome/110.0.0.0 Safari/537.36 Edg/110.0.1587.57" etag="9HPjhTlmoz-pFvS6wDiv" version="21.0.1" type="github">
  <diagram id="Nr91gBnzZNPVa7OQCYuw" name="第 1 页">
    <mxGraphModel dx="2608" dy="576" grid="1" gridSize="10" guides="1" tooltips="1" connect="1" arrows="1" fold="1" page="1" pageScale="1" pageWidth="827" pageHeight="1169" math="1" shadow="0">
      <root>
        <mxCell id="0" />
        <mxCell id="1" parent="0" />
        <mxCell id="OwIFoiRJL9QfCj11o62w-37" value="&lt;font style=&quot;font-size: 40px;&quot;&gt;输入层&lt;/font&gt;" style="text;html=1;strokeColor=none;fillColor=none;align=center;verticalAlign=middle;whiteSpace=wrap;rounded=0;fontFamily=宋体;fontSize=40;movable=1;resizable=1;rotatable=1;deletable=1;editable=1;locked=0;connectable=1;" parent="1" vertex="1">
          <mxGeometry x="-1150" y="1590" width="280" height="30" as="geometry" />
        </mxCell>
        <mxCell id="M2UcmTgwvu7eOfn9CfLt-47" style="edgeStyle=none;rounded=0;orthogonalLoop=1;jettySize=auto;html=1;exitX=1;exitY=0.5;exitDx=0;exitDy=0;entryX=0;entryY=0.5;entryDx=0;entryDy=0;fontSize=40;endArrow=none;endFill=0;movable=1;resizable=1;rotatable=1;deletable=1;editable=1;connectable=1;locked=0;" parent="1" source="M2UcmTgwvu7eOfn9CfLt-4" target="M2UcmTgwvu7eOfn9CfLt-13" edge="1">
          <mxGeometry relative="1" as="geometry" />
        </mxCell>
        <mxCell id="M2UcmTgwvu7eOfn9CfLt-48" style="edgeStyle=none;rounded=0;orthogonalLoop=1;jettySize=auto;html=1;exitX=1;exitY=0.5;exitDx=0;exitDy=0;entryX=0;entryY=0.5;entryDx=0;entryDy=0;fontSize=40;endArrow=none;endFill=0;movable=1;resizable=1;rotatable=1;deletable=1;editable=1;connectable=1;locked=0;" parent="1" source="M2UcmTgwvu7eOfn9CfLt-4" target="M2UcmTgwvu7eOfn9CfLt-14" edge="1">
          <mxGeometry relative="1" as="geometry" />
        </mxCell>
        <mxCell id="M2UcmTgwvu7eOfn9CfLt-49" style="edgeStyle=none;rounded=0;orthogonalLoop=1;jettySize=auto;html=1;exitX=1;exitY=0.5;exitDx=0;exitDy=0;entryX=0;entryY=0.5;entryDx=0;entryDy=0;fontSize=40;endArrow=none;endFill=0;movable=1;resizable=1;rotatable=1;deletable=1;editable=1;connectable=1;strokeColor=#FF0000;locked=0;" parent="1" source="M2UcmTgwvu7eOfn9CfLt-4" target="M2UcmTgwvu7eOfn9CfLt-15" edge="1">
          <mxGeometry relative="1" as="geometry" />
        </mxCell>
        <mxCell id="M2UcmTgwvu7eOfn9CfLt-4" value="&lt;span style=&quot;font-family: &amp;quot;Times New Roman&amp;quot;; font-size: 30px;&quot;&gt;$$\mathring{x}^{(2N_cN_s)}$$&lt;/span&gt;" style="ellipse;whiteSpace=wrap;html=1;aspect=fixed;strokeWidth=2;movable=1;resizable=1;rotatable=1;deletable=1;editable=1;locked=0;connectable=1;" parent="1" vertex="1">
          <mxGeometry x="-1060" y="1440" width="121.5" height="121.5" as="geometry" />
        </mxCell>
        <mxCell id="M2UcmTgwvu7eOfn9CfLt-44" style="edgeStyle=none;rounded=0;orthogonalLoop=1;jettySize=auto;html=1;exitX=1;exitY=0.5;exitDx=0;exitDy=0;entryX=0;entryY=0.5;entryDx=0;entryDy=0;fontSize=40;endArrow=none;endFill=0;movable=1;resizable=1;rotatable=1;deletable=1;editable=1;connectable=1;locked=0;" parent="1" source="M2UcmTgwvu7eOfn9CfLt-5" target="M2UcmTgwvu7eOfn9CfLt-13" edge="1">
          <mxGeometry relative="1" as="geometry" />
        </mxCell>
        <mxCell id="M2UcmTgwvu7eOfn9CfLt-45" style="edgeStyle=none;rounded=0;orthogonalLoop=1;jettySize=auto;html=1;exitX=1;exitY=0.5;exitDx=0;exitDy=0;entryX=0;entryY=0.5;entryDx=0;entryDy=0;fontSize=40;endArrow=none;endFill=0;movable=1;resizable=1;rotatable=1;deletable=1;editable=1;connectable=1;strokeColor=#FF0000;locked=0;" parent="1" source="M2UcmTgwvu7eOfn9CfLt-5" target="M2UcmTgwvu7eOfn9CfLt-14" edge="1">
          <mxGeometry relative="1" as="geometry" />
        </mxCell>
        <mxCell id="M2UcmTgwvu7eOfn9CfLt-46" style="edgeStyle=none;rounded=0;orthogonalLoop=1;jettySize=auto;html=1;exitX=1;exitY=0.5;exitDx=0;exitDy=0;entryX=0;entryY=0.5;entryDx=0;entryDy=0;fontSize=40;endArrow=none;endFill=0;movable=1;resizable=1;rotatable=1;deletable=1;editable=1;connectable=1;locked=0;" parent="1" source="M2UcmTgwvu7eOfn9CfLt-5" target="M2UcmTgwvu7eOfn9CfLt-15" edge="1">
          <mxGeometry relative="1" as="geometry" />
        </mxCell>
        <mxCell id="M2UcmTgwvu7eOfn9CfLt-5" value="&lt;span style=&quot;font-family: &amp;quot;Times New Roman&amp;quot;; font-size: 30px;&quot;&gt;$$\mathring{x}^{(i)}$$&lt;/span&gt;" style="ellipse;whiteSpace=wrap;html=1;aspect=fixed;strokeWidth=2;movable=1;resizable=1;rotatable=1;deletable=1;editable=1;locked=0;connectable=1;" parent="1" vertex="1">
          <mxGeometry x="-1060" y="1240" width="121.5" height="121.5" as="geometry" />
        </mxCell>
        <mxCell id="M2UcmTgwvu7eOfn9CfLt-38" style="edgeStyle=none;rounded=0;orthogonalLoop=1;jettySize=auto;html=1;exitX=1;exitY=0.5;exitDx=0;exitDy=0;entryX=0;entryY=0.5;entryDx=0;entryDy=0;fontSize=40;endArrow=none;endFill=0;movable=1;resizable=1;rotatable=1;deletable=1;editable=1;connectable=1;strokeColor=#FF0000;fontColor=#FF0000;locked=0;" parent="1" source="M2UcmTgwvu7eOfn9CfLt-9" target="M2UcmTgwvu7eOfn9CfLt-13" edge="1">
          <mxGeometry relative="1" as="geometry" />
        </mxCell>
        <mxCell id="M2UcmTgwvu7eOfn9CfLt-39" style="edgeStyle=none;rounded=0;orthogonalLoop=1;jettySize=auto;html=1;exitX=1;exitY=0.5;exitDx=0;exitDy=0;entryX=0;entryY=0.5;entryDx=0;entryDy=0;fontSize=40;endArrow=none;endFill=0;movable=1;resizable=1;rotatable=1;deletable=1;editable=1;connectable=1;locked=0;" parent="1" source="M2UcmTgwvu7eOfn9CfLt-9" target="M2UcmTgwvu7eOfn9CfLt-14" edge="1">
          <mxGeometry relative="1" as="geometry" />
        </mxCell>
        <mxCell id="M2UcmTgwvu7eOfn9CfLt-40" style="edgeStyle=none;rounded=0;orthogonalLoop=1;jettySize=auto;html=1;exitX=1;exitY=0.5;exitDx=0;exitDy=0;entryX=0;entryY=0.5;entryDx=0;entryDy=0;fontSize=40;endArrow=none;endFill=0;movable=1;resizable=1;rotatable=1;deletable=1;editable=1;connectable=1;locked=0;" parent="1" source="M2UcmTgwvu7eOfn9CfLt-9" target="M2UcmTgwvu7eOfn9CfLt-15" edge="1">
          <mxGeometry relative="1" as="geometry" />
        </mxCell>
        <mxCell id="M2UcmTgwvu7eOfn9CfLt-9" value="&lt;span style=&quot;font-family: &amp;quot;Times New Roman&amp;quot;; font-size: 30px;&quot;&gt;$$\mathring{x}^{(1)}$$&lt;/span&gt;" style="ellipse;whiteSpace=wrap;html=1;aspect=fixed;strokeWidth=2;movable=1;resizable=1;rotatable=1;deletable=1;editable=1;locked=0;connectable=1;" parent="1" vertex="1">
          <mxGeometry x="-1060" y="1038.75" width="121.5" height="121.5" as="geometry" />
        </mxCell>
        <mxCell id="M2UcmTgwvu7eOfn9CfLt-13" value="&lt;span style=&quot;font-family: &amp;quot;Times New Roman&amp;quot;; font-size: 30px;&quot;&gt;$${\Phi}_{1}^{(1)}$$&lt;/span&gt;" style="ellipse;whiteSpace=wrap;html=1;aspect=fixed;strokeWidth=2;movable=1;resizable=1;rotatable=1;deletable=1;editable=1;locked=0;connectable=1;" parent="1" vertex="1">
          <mxGeometry x="-780" y="1038" width="121.5" height="121.5" as="geometry" />
        </mxCell>
        <mxCell id="M2UcmTgwvu7eOfn9CfLt-14" value="&lt;span style=&quot;font-family: &amp;quot;Times New Roman&amp;quot;; font-size: 30px;&quot;&gt;$${\Phi}_{1}^{(n_n)}$$&lt;/span&gt;" style="ellipse;whiteSpace=wrap;html=1;aspect=fixed;strokeWidth=2;movable=1;resizable=1;rotatable=1;deletable=1;editable=1;locked=0;connectable=1;" parent="1" vertex="1">
          <mxGeometry x="-780" y="1240" width="121.5" height="121.5" as="geometry" />
        </mxCell>
        <mxCell id="M2UcmTgwvu7eOfn9CfLt-15" value="&lt;span style=&quot;font-family: &amp;quot;Times New Roman&amp;quot;; font-size: 30px;&quot;&gt;$${\Phi}_{1}^{(N_n)}$$&lt;/span&gt;" style="ellipse;whiteSpace=wrap;html=1;aspect=fixed;strokeWidth=2;movable=1;resizable=1;rotatable=1;deletable=1;editable=1;locked=0;connectable=1;" parent="1" vertex="1">
          <mxGeometry x="-780" y="1440" width="121.5" height="121.5" as="geometry" />
        </mxCell>
        <mxCell id="M2UcmTgwvu7eOfn9CfLt-59" style="edgeStyle=none;rounded=0;orthogonalLoop=1;jettySize=auto;html=1;exitX=1;exitY=0.5;exitDx=0;exitDy=0;entryX=0;entryY=0.5;entryDx=0;entryDy=0;fontSize=40;endArrow=none;endFill=0;movable=1;resizable=1;rotatable=1;deletable=1;editable=1;connectable=1;strokeColor=#FF0000;locked=0;" parent="1" source="M2UcmTgwvu7eOfn9CfLt-22" target="XeoROwiILn2AdARiK8tl-6" edge="1">
          <mxGeometry relative="1" as="geometry">
            <mxPoint x="-879.25" y="1100" as="targetPoint" />
          </mxGeometry>
        </mxCell>
        <mxCell id="XeoROwiILn2AdARiK8tl-16" style="edgeStyle=none;rounded=0;orthogonalLoop=1;jettySize=auto;html=1;exitX=1;exitY=0.5;exitDx=0;exitDy=0;entryX=0;entryY=0.5;entryDx=0;entryDy=0;endArrow=none;endFill=0;movable=1;resizable=1;rotatable=1;deletable=1;editable=1;connectable=1;locked=0;" parent="1" source="M2UcmTgwvu7eOfn9CfLt-22" target="XeoROwiILn2AdARiK8tl-5" edge="1">
          <mxGeometry relative="1" as="geometry">
            <mxPoint x="-749.25" y="1100" as="targetPoint" />
          </mxGeometry>
        </mxCell>
        <mxCell id="M2UcmTgwvu7eOfn9CfLt-22" value="&lt;span style=&quot;font-family: &amp;quot;Times New Roman&amp;quot;; font-size: 30px;&quot;&gt;$${\Phi}_{N_l}^{(1)}$$&lt;/span&gt;" style="ellipse;whiteSpace=wrap;html=1;aspect=fixed;strokeWidth=2;movable=1;resizable=1;rotatable=1;deletable=1;editable=1;locked=0;connectable=1;" parent="1" vertex="1">
          <mxGeometry x="-300.5" y="1038.75" width="121.5" height="121.5" as="geometry" />
        </mxCell>
        <mxCell id="XeoROwiILn2AdARiK8tl-19" style="edgeStyle=none;rounded=0;orthogonalLoop=1;jettySize=auto;html=1;exitX=1;exitY=0.5;exitDx=0;exitDy=0;entryX=0;entryY=0.5;entryDx=0;entryDy=0;endArrow=none;endFill=0;movable=1;resizable=1;rotatable=1;deletable=1;editable=1;connectable=1;locked=0;" parent="1" source="M2UcmTgwvu7eOfn9CfLt-23" target="XeoROwiILn2AdARiK8tl-6" edge="1">
          <mxGeometry relative="1" as="geometry">
            <mxPoint x="-749.25" y="1100" as="targetPoint" />
          </mxGeometry>
        </mxCell>
        <mxCell id="M2UcmTgwvu7eOfn9CfLt-23" value="&lt;span style=&quot;font-family: &amp;quot;Times New Roman&amp;quot;; font-size: 30px;&quot;&gt;$${\Phi}_{N_l}^{(n_n)}$$&lt;/span&gt;" style="ellipse;whiteSpace=wrap;html=1;aspect=fixed;strokeWidth=2;movable=1;resizable=1;rotatable=1;deletable=1;editable=1;locked=0;connectable=1;" parent="1" vertex="1">
          <mxGeometry x="-300.5" y="1240" width="121.5" height="121.5" as="geometry" />
        </mxCell>
        <mxCell id="M2UcmTgwvu7eOfn9CfLt-61" style="edgeStyle=none;rounded=0;orthogonalLoop=1;jettySize=auto;html=1;fontSize=40;endArrow=none;endFill=0;entryX=0;entryY=0.5;entryDx=0;entryDy=0;movable=1;resizable=1;rotatable=1;deletable=1;editable=1;connectable=1;strokeColor=#FF0000;locked=0;exitX=1;exitY=0.5;exitDx=0;exitDy=0;" parent="1" source="M2UcmTgwvu7eOfn9CfLt-24" target="XeoROwiILn2AdARiK8tl-5" edge="1">
          <mxGeometry relative="1" as="geometry">
            <mxPoint x="-879.25" y="1100" as="targetPoint" />
            <mxPoint x="-170" y="1610" as="sourcePoint" />
          </mxGeometry>
        </mxCell>
        <mxCell id="XeoROwiILn2AdARiK8tl-20" style="edgeStyle=none;rounded=0;orthogonalLoop=1;jettySize=auto;html=1;exitX=1;exitY=0.5;exitDx=0;exitDy=0;entryX=0;entryY=0.5;entryDx=0;entryDy=0;endArrow=none;endFill=0;movable=1;resizable=1;rotatable=1;deletable=1;editable=1;connectable=1;locked=0;" parent="1" source="M2UcmTgwvu7eOfn9CfLt-24" target="XeoROwiILn2AdARiK8tl-6" edge="1">
          <mxGeometry relative="1" as="geometry">
            <mxPoint x="-749.25" y="1100" as="targetPoint" />
          </mxGeometry>
        </mxCell>
        <mxCell id="7U1tbbjrAaeNdRE5ZruC-3" style="edgeStyle=orthogonalEdgeStyle;rounded=0;orthogonalLoop=1;jettySize=auto;html=1;exitX=0.5;exitY=1;exitDx=0;exitDy=0;movable=1;resizable=1;rotatable=1;deletable=1;editable=1;locked=0;connectable=1;" parent="1" edge="1">
          <mxGeometry relative="1" as="geometry">
            <mxPoint x="-183" y="877.4999999999998" as="sourcePoint" />
            <mxPoint x="-183" y="877.4999999999998" as="targetPoint" />
          </mxGeometry>
        </mxCell>
        <mxCell id="t0eo6kWqra9Wq7suAkri-11" value="&lt;font style=&quot;font-size: 40px;&quot;&gt;全连接层1&lt;/font&gt;" style="text;html=1;strokeColor=none;fillColor=none;align=center;verticalAlign=middle;whiteSpace=wrap;rounded=0;fontFamily=宋体;fontSize=50;movable=1;resizable=1;rotatable=1;deletable=1;editable=1;locked=0;connectable=1;" parent="1" vertex="1">
          <mxGeometry x="-862.75" y="1545" width="287" height="120" as="geometry" />
        </mxCell>
        <mxCell id="t0eo6kWqra9Wq7suAkri-18" value="&lt;font style=&quot;font-size: 25px;&quot;&gt;$${W}^{(1,1)}_1$$&lt;/font&gt;" style="text;html=1;strokeColor=none;fillColor=none;align=center;verticalAlign=middle;rounded=0;fontFamily=Times New Roman;fontSize=50;fontColor=#FF0000;movable=1;resizable=1;rotatable=1;deletable=1;editable=1;locked=0;connectable=1;" parent="1" vertex="1">
          <mxGeometry x="-1019" y="1016" width="287" height="120" as="geometry" />
        </mxCell>
        <mxCell id="XeoROwiILn2AdARiK8tl-6" value="&lt;span style=&quot;font-family: &amp;quot;Times New Roman&amp;quot;; font-size: 30px;&quot;&gt;$$\hat{d}$$&lt;/span&gt;" style="ellipse;whiteSpace=wrap;html=1;aspect=fixed;strokeWidth=2;movable=1;resizable=1;rotatable=1;deletable=1;editable=1;locked=0;connectable=1;" parent="1" vertex="1">
          <mxGeometry x="-10" y="1118.5" width="121.5" height="121.5" as="geometry" />
        </mxCell>
        <mxCell id="XeoROwiILn2AdARiK8tl-5" value="&lt;span style=&quot;font-family: &amp;quot;Times New Roman&amp;quot;; font-size: 30px;&quot;&gt;$$\hat{v}$$&lt;/span&gt;" style="ellipse;whiteSpace=wrap;html=1;aspect=fixed;strokeWidth=2;movable=1;resizable=1;rotatable=1;deletable=1;editable=1;locked=0;connectable=1;" parent="1" vertex="1">
          <mxGeometry x="-10" y="1361.5" width="121.5" height="121.5" as="geometry" />
        </mxCell>
        <mxCell id="XeoROwiILn2AdARiK8tl-13" value="&lt;span style=&quot;font-size: 40px;&quot;&gt;&lt;font face=&quot;宋体&quot; style=&quot;font-size: 40px;&quot;&gt;输出层&lt;/font&gt;&lt;/span&gt;" style="text;whiteSpace=wrap;html=1;align=center;movable=1;resizable=1;rotatable=1;deletable=1;editable=1;locked=0;connectable=1;fontSize=40;" parent="1" vertex="1">
          <mxGeometry x="-114.25" y="1570" width="330" height="50" as="geometry" />
        </mxCell>
        <mxCell id="XeoROwiILn2AdARiK8tl-33" value="&lt;span style=&quot;font-size: 25px;&quot;&gt;$${W}^{(N_n,2N_cN_s)}_1$$&lt;/span&gt;" style="text;html=1;strokeColor=none;fillColor=none;align=center;verticalAlign=middle;whiteSpace=wrap;rounded=0;fontFamily=Times New Roman;fontSize=50;fontColor=#FF0000;movable=1;resizable=1;rotatable=1;deletable=1;editable=1;locked=0;connectable=1;" parent="1" vertex="1">
          <mxGeometry x="-1002" y="1465" width="287" height="120" as="geometry" />
        </mxCell>
        <mxCell id="XeoROwiILn2AdARiK8tl-34" value="&lt;font style=&quot;font-size: 25px;&quot;&gt;$${W}^{(n_n,i)}_1$$&lt;/font&gt;" style="text;html=1;strokeColor=none;fillColor=none;align=center;verticalAlign=middle;whiteSpace=wrap;rounded=0;fontFamily=Times New Roman;fontSize=50;fontColor=#FF0000;movable=1;resizable=1;rotatable=1;deletable=1;editable=1;locked=0;connectable=1;" parent="1" vertex="1">
          <mxGeometry x="-1026" y="1220" width="287" height="120" as="geometry" />
        </mxCell>
        <mxCell id="XeoROwiILn2AdARiK8tl-37" value="&lt;font style=&quot;font-size: 25px;&quot;&gt;$${W}^{(1,1)}_\text{out}$$&lt;/font&gt;" style="text;html=1;strokeColor=none;fillColor=none;align=center;verticalAlign=middle;whiteSpace=wrap;rounded=0;fontFamily=Times New Roman;fontSize=50;fontColor=#FF0000;movable=1;resizable=1;rotatable=1;deletable=1;editable=1;locked=0;connectable=1;" parent="1" vertex="1">
          <mxGeometry x="-230" y="1038.75" width="287" height="120" as="geometry" />
        </mxCell>
        <mxCell id="XeoROwiILn2AdARiK8tl-38" value="&lt;font style=&quot;font-size: 25px;&quot;&gt;$${W}^{(2,N_n)}_\text{out}$$&lt;/font&gt;" style="text;html=1;strokeColor=none;fillColor=none;align=center;verticalAlign=middle;whiteSpace=wrap;rounded=0;fontFamily=Times New Roman;fontSize=50;fontColor=#FF0000;movable=1;resizable=1;rotatable=1;deletable=1;editable=1;locked=0;connectable=1;" parent="1" vertex="1">
          <mxGeometry x="-220" y="1430" width="287" height="120" as="geometry" />
        </mxCell>
        <mxCell id="XeoROwiILn2AdARiK8tl-40" style="edgeStyle=none;rounded=0;orthogonalLoop=1;jettySize=auto;html=1;exitX=1;exitY=0.5;exitDx=0;exitDy=0;entryX=0;entryY=0.5;entryDx=0;entryDy=0;fontSize=25;endArrow=none;endFill=0;movable=1;resizable=1;rotatable=1;deletable=1;editable=1;connectable=1;strokeColor=#FF0000;locked=0;" parent="1" source="XeoROwiILn2AdARiK8tl-39" target="M2UcmTgwvu7eOfn9CfLt-22" edge="1">
          <mxGeometry relative="1" as="geometry" />
        </mxCell>
        <mxCell id="XeoROwiILn2AdARiK8tl-48" style="edgeStyle=none;rounded=0;orthogonalLoop=1;jettySize=auto;html=1;exitX=1;exitY=0.5;exitDx=0;exitDy=0;fontSize=25;endArrow=none;endFill=0;entryX=0;entryY=0.5;entryDx=0;entryDy=0;movable=1;resizable=1;rotatable=1;deletable=1;editable=1;connectable=1;locked=0;" parent="1" source="XeoROwiILn2AdARiK8tl-39" target="M2UcmTgwvu7eOfn9CfLt-23" edge="1">
          <mxGeometry relative="1" as="geometry">
            <mxPoint x="-640" y="1040" as="targetPoint" />
          </mxGeometry>
        </mxCell>
        <mxCell id="XeoROwiILn2AdARiK8tl-49" style="edgeStyle=none;rounded=0;orthogonalLoop=1;jettySize=auto;html=1;exitX=1;exitY=0.5;exitDx=0;exitDy=0;entryX=0;entryY=0.5;entryDx=0;entryDy=0;fontSize=25;endArrow=none;endFill=0;movable=1;resizable=1;rotatable=1;deletable=1;editable=1;connectable=1;locked=0;" parent="1" source="XeoROwiILn2AdARiK8tl-39" target="M2UcmTgwvu7eOfn9CfLt-24" edge="1">
          <mxGeometry relative="1" as="geometry" />
        </mxCell>
        <mxCell id="XeoROwiILn2AdARiK8tl-39" value="&lt;span style=&quot;font-family: &amp;quot;Times New Roman&amp;quot;; font-size: 30px;&quot;&gt;$${\Phi}_{N_l-1}^{(1)}$$&lt;/span&gt;" style="ellipse;whiteSpace=wrap;html=1;aspect=fixed;strokeWidth=2;movable=1;resizable=1;rotatable=1;deletable=1;editable=1;locked=0;connectable=1;" parent="1" vertex="1">
          <mxGeometry x="-580" y="1038" width="121.5" height="121.5" as="geometry" />
        </mxCell>
        <mxCell id="XeoROwiILn2AdARiK8tl-43" style="edgeStyle=none;rounded=0;orthogonalLoop=1;jettySize=auto;html=1;exitX=1;exitY=0.5;exitDx=0;exitDy=0;entryX=0;entryY=0.5;entryDx=0;entryDy=0;fontSize=25;endArrow=none;endFill=0;movable=1;resizable=1;rotatable=1;deletable=1;editable=1;connectable=1;strokeColor=#FF0000;locked=0;" parent="1" source="XeoROwiILn2AdARiK8tl-41" target="M2UcmTgwvu7eOfn9CfLt-23" edge="1">
          <mxGeometry relative="1" as="geometry" />
        </mxCell>
        <mxCell id="XeoROwiILn2AdARiK8tl-50" style="edgeStyle=none;rounded=0;orthogonalLoop=1;jettySize=auto;html=1;exitX=1;exitY=0.5;exitDx=0;exitDy=0;fontSize=25;endArrow=none;endFill=0;entryX=0;entryY=0.5;entryDx=0;entryDy=0;movable=1;resizable=1;rotatable=1;deletable=1;editable=1;connectable=1;locked=0;" parent="1" source="XeoROwiILn2AdARiK8tl-41" target="M2UcmTgwvu7eOfn9CfLt-24" edge="1">
          <mxGeometry relative="1" as="geometry">
            <mxPoint x="-890" y="1050" as="targetPoint" />
          </mxGeometry>
        </mxCell>
        <mxCell id="XeoROwiILn2AdARiK8tl-51" style="edgeStyle=none;rounded=0;orthogonalLoop=1;jettySize=auto;html=1;exitX=1;exitY=0.5;exitDx=0;exitDy=0;entryX=0;entryY=0.5;entryDx=0;entryDy=0;fontSize=25;endArrow=none;endFill=0;movable=1;resizable=1;rotatable=1;deletable=1;editable=1;connectable=1;locked=0;" parent="1" source="XeoROwiILn2AdARiK8tl-41" target="M2UcmTgwvu7eOfn9CfLt-22" edge="1">
          <mxGeometry relative="1" as="geometry" />
        </mxCell>
        <mxCell id="XeoROwiILn2AdARiK8tl-41" value="&lt;span style=&quot;font-family: &amp;quot;Times New Roman&amp;quot;; font-size: 30px;&quot;&gt;$${\Phi}_{N_l-1}^{(n_n)}$$&lt;/span&gt;" style="ellipse;whiteSpace=wrap;html=1;aspect=fixed;strokeWidth=2;movable=1;resizable=1;rotatable=1;deletable=1;editable=1;locked=0;connectable=1;" parent="1" vertex="1">
          <mxGeometry x="-580" y="1240" width="121.5" height="121.5" as="geometry" />
        </mxCell>
        <mxCell id="XeoROwiILn2AdARiK8tl-44" style="edgeStyle=none;rounded=0;orthogonalLoop=1;jettySize=auto;html=1;exitX=1;exitY=0.5;exitDx=0;exitDy=0;entryX=0;entryY=0.5;entryDx=0;entryDy=0;fontSize=25;endArrow=none;endFill=0;movable=1;resizable=1;rotatable=1;deletable=1;editable=1;connectable=1;strokeColor=#FF0000;locked=0;" parent="1" source="XeoROwiILn2AdARiK8tl-42" target="M2UcmTgwvu7eOfn9CfLt-24" edge="1">
          <mxGeometry relative="1" as="geometry" />
        </mxCell>
        <mxCell id="XeoROwiILn2AdARiK8tl-52" style="edgeStyle=none;rounded=0;orthogonalLoop=1;jettySize=auto;html=1;exitX=1;exitY=0.5;exitDx=0;exitDy=0;entryX=0;entryY=0.5;entryDx=0;entryDy=0;fontSize=25;endArrow=none;endFill=0;movable=1;resizable=1;rotatable=1;deletable=1;editable=1;connectable=1;locked=0;" parent="1" source="XeoROwiILn2AdARiK8tl-42" target="M2UcmTgwvu7eOfn9CfLt-22" edge="1">
          <mxGeometry relative="1" as="geometry" />
        </mxCell>
        <mxCell id="XeoROwiILn2AdARiK8tl-53" style="edgeStyle=none;rounded=0;orthogonalLoop=1;jettySize=auto;html=1;exitX=1;exitY=0.5;exitDx=0;exitDy=0;entryX=0;entryY=0.5;entryDx=0;entryDy=0;fontSize=25;endArrow=none;endFill=0;movable=1;resizable=1;rotatable=1;deletable=1;editable=1;connectable=1;locked=0;" parent="1" source="XeoROwiILn2AdARiK8tl-42" target="M2UcmTgwvu7eOfn9CfLt-23" edge="1">
          <mxGeometry relative="1" as="geometry" />
        </mxCell>
        <mxCell id="XeoROwiILn2AdARiK8tl-42" value="&lt;span style=&quot;font-family: &amp;quot;Times New Roman&amp;quot;; font-size: 30px;&quot;&gt;$${\Phi}_{N_l-1}^{(N_n)}$$&lt;/span&gt;" style="ellipse;whiteSpace=wrap;html=1;aspect=fixed;strokeWidth=2;movable=1;resizable=1;rotatable=1;deletable=1;editable=1;locked=0;connectable=1;" parent="1" vertex="1">
          <mxGeometry x="-580" y="1440" width="121.5" height="121.5" as="geometry" />
        </mxCell>
        <mxCell id="XeoROwiILn2AdARiK8tl-45" value="&lt;font style=&quot;font-size: 25px;&quot;&gt;$${W}^{(1,1)}_{N_l}$$&lt;/font&gt;" style="text;html=1;strokeColor=none;fillColor=none;align=center;verticalAlign=middle;whiteSpace=wrap;rounded=0;fontFamily=Times New Roman;fontSize=50;fontColor=#FF0000;movable=1;resizable=1;rotatable=1;deletable=1;editable=1;locked=0;connectable=1;" parent="1" vertex="1">
          <mxGeometry x="-560" y="1010" width="287" height="120" as="geometry" />
        </mxCell>
        <mxCell id="XeoROwiILn2AdARiK8tl-46" value="&lt;font style=&quot;font-size: 25px;&quot;&gt;$${W}^{(n_n,n_n)}_{N_l}$$&lt;/font&gt;" style="text;html=1;strokeColor=none;fillColor=none;align=center;verticalAlign=middle;whiteSpace=wrap;rounded=0;fontFamily=Times New Roman;fontSize=50;fontColor=#FF0000;movable=1;resizable=1;rotatable=1;deletable=1;editable=1;locked=0;connectable=1;" parent="1" vertex="1">
          <mxGeometry x="-554" y="1211" width="287" height="120" as="geometry" />
        </mxCell>
        <mxCell id="XeoROwiILn2AdARiK8tl-47" value="&lt;font style=&quot;font-size: 25px;&quot;&gt;$${W}^{(N_n,N_n)}_{N_l}$$&lt;/font&gt;" style="text;html=1;strokeColor=none;fillColor=none;align=center;verticalAlign=middle;whiteSpace=wrap;rounded=0;fontFamily=Times New Roman;fontSize=50;labelBorderColor=none;fontColor=#FF0000;movable=1;resizable=1;rotatable=1;deletable=1;editable=1;locked=0;connectable=1;" parent="1" vertex="1">
          <mxGeometry x="-550" y="1470" width="287" height="120" as="geometry" />
        </mxCell>
        <mxCell id="CB7Ro9h_NJcxQG_lgQYG-1" value="&lt;font style=&quot;font-size: 40px;&quot;&gt;...&lt;/font&gt;" style="text;html=1;strokeColor=none;fillColor=none;align=center;verticalAlign=middle;whiteSpace=wrap;rounded=0;fontFamily=Times New Roman;fontSize=30;movable=1;resizable=1;rotatable=1;deletable=1;editable=1;connectable=1;locked=0;" parent="1" vertex="1">
          <mxGeometry x="-650" y="1065.75" width="60" height="30" as="geometry" />
        </mxCell>
        <mxCell id="CB7Ro9h_NJcxQG_lgQYG-2" value="&lt;font style=&quot;font-size: 40px;&quot;&gt;...&lt;/font&gt;" style="text;html=1;strokeColor=none;fillColor=none;align=center;verticalAlign=middle;whiteSpace=wrap;rounded=0;fontFamily=Times New Roman;fontSize=30;movable=1;resizable=1;rotatable=1;deletable=1;editable=1;connectable=1;locked=0;" parent="1" vertex="1">
          <mxGeometry x="-650" y="1275.75" width="60" height="30" as="geometry" />
        </mxCell>
        <mxCell id="6lGiRCO-KDSi75rr7EYO-1" value="" style="group;movable=1;resizable=1;rotatable=1;deletable=1;editable=1;locked=0;connectable=1;" parent="1" vertex="1" connectable="0">
          <mxGeometry x="-670" y="1545" width="292" height="120" as="geometry" />
        </mxCell>
        <mxCell id="t0eo6kWqra9Wq7suAkri-14" value="&lt;font style=&quot;font-size: 40px;&quot;&gt;全连接层&lt;/font&gt;" style="text;html=1;strokeColor=none;fillColor=none;align=center;verticalAlign=middle;whiteSpace=wrap;rounded=0;fontFamily=宋体;fontSize=50;movable=1;resizable=1;rotatable=1;deletable=1;editable=1;locked=0;connectable=1;" parent="6lGiRCO-KDSi75rr7EYO-1" vertex="1">
          <mxGeometry width="287" height="120" as="geometry" />
        </mxCell>
        <mxCell id="t0eo6kWqra9Wq7suAkri-16" value="&lt;span style=&quot;color: rgb(0, 0, 0); font-family: &amp;quot;Times New Roman&amp;quot;; font-style: normal; font-variant-ligatures: normal; font-variant-caps: normal; font-weight: 400; letter-spacing: normal; orphans: 2; text-align: center; text-indent: 0px; text-transform: none; widows: 2; word-spacing: 0px; -webkit-text-stroke-width: 0px; background-color: rgb(248, 249, 250); text-decoration-thickness: initial; text-decoration-style: initial; text-decoration-color: initial; float: none; display: inline !important;&quot;&gt;&lt;font style=&quot;font-size: 40px;&quot;&gt;$$N_l-1$$&lt;/font&gt;&lt;/span&gt;" style="text;whiteSpace=wrap;html=1;movable=1;resizable=1;rotatable=1;deletable=1;editable=1;locked=0;connectable=1;" parent="6lGiRCO-KDSi75rr7EYO-1" vertex="1">
          <mxGeometry x="220" y="-10" width="140" height="60" as="geometry" />
        </mxCell>
        <mxCell id="lNCHyk-WGEvY0NX4Fzwx-1" value="" style="edgeStyle=none;rounded=0;orthogonalLoop=1;jettySize=auto;html=1;exitX=1;exitY=0.5;exitDx=0;exitDy=0;fontSize=40;endArrow=none;endFill=0;entryX=0;entryY=0.5;entryDx=0;entryDy=0;movable=1;resizable=1;rotatable=1;deletable=1;editable=1;connectable=1;locked=0;" parent="1" source="M2UcmTgwvu7eOfn9CfLt-23" target="XeoROwiILn2AdARiK8tl-5" edge="1">
          <mxGeometry relative="1" as="geometry">
            <mxPoint x="41" y="1039" as="targetPoint" />
            <mxPoint x="-599" y="1160" as="sourcePoint" />
          </mxGeometry>
        </mxCell>
        <mxCell id="M2UcmTgwvu7eOfn9CfLt-24" value="&lt;span style=&quot;font-family: &amp;quot;Times New Roman&amp;quot;; font-size: 30px;&quot;&gt;$${\Phi}_{N_l}^{(N_n)}$$&lt;/span&gt;" style="ellipse;whiteSpace=wrap;html=1;aspect=fixed;strokeWidth=2;movable=1;resizable=1;rotatable=1;deletable=1;editable=1;locked=0;connectable=1;" parent="1" vertex="1">
          <mxGeometry x="-303" y="1440" width="121.5" height="121.5" as="geometry" />
        </mxCell>
        <mxCell id="lNCHyk-WGEvY0NX4Fzwx-3" value="&lt;font style=&quot;font-size: 40px;&quot;&gt;...&lt;/font&gt;" style="text;html=1;strokeColor=none;fillColor=none;align=center;verticalAlign=middle;whiteSpace=wrap;rounded=0;fontFamily=Times New Roman;fontSize=30;movable=1;resizable=1;rotatable=1;deletable=1;editable=1;connectable=1;locked=0;" parent="1" vertex="1">
          <mxGeometry x="-650" y="1483" width="60" height="30" as="geometry" />
        </mxCell>
        <mxCell id="lNCHyk-WGEvY0NX4Fzwx-9" value="" style="group" parent="1" vertex="1" connectable="0">
          <mxGeometry x="-1011" y="1166" width="30" height="269" as="geometry" />
        </mxCell>
        <mxCell id="7U1tbbjrAaeNdRE5ZruC-4" value="&lt;font style=&quot;font-size: 40px;&quot;&gt;...&lt;/font&gt;" style="text;html=1;strokeColor=none;fillColor=none;align=center;verticalAlign=middle;whiteSpace=wrap;rounded=0;fontFamily=Times New Roman;fontSize=30;movable=1;resizable=1;rotatable=1;deletable=1;editable=1;connectable=1;rotation=90;locked=0;" parent="lNCHyk-WGEvY0NX4Fzwx-9" vertex="1">
          <mxGeometry x="-15" y="15" width="60" height="30" as="geometry" />
        </mxCell>
        <mxCell id="lNCHyk-WGEvY0NX4Fzwx-7" value="&lt;font style=&quot;font-size: 40px;&quot;&gt;...&lt;/font&gt;" style="text;html=1;strokeColor=none;fillColor=none;align=center;verticalAlign=middle;whiteSpace=wrap;rounded=0;fontFamily=Times New Roman;fontSize=30;movable=1;resizable=1;rotatable=1;deletable=1;editable=1;connectable=1;rotation=90;locked=0;" parent="lNCHyk-WGEvY0NX4Fzwx-9" vertex="1">
          <mxGeometry x="-15" y="224" width="60" height="30" as="geometry" />
        </mxCell>
        <mxCell id="lNCHyk-WGEvY0NX4Fzwx-10" value="" style="group" parent="1" vertex="1" connectable="0">
          <mxGeometry x="-720" y="1161" width="30" height="269" as="geometry" />
        </mxCell>
        <mxCell id="lNCHyk-WGEvY0NX4Fzwx-11" value="&lt;font style=&quot;font-size: 40px;&quot;&gt;...&lt;/font&gt;" style="text;html=1;strokeColor=none;fillColor=none;align=center;verticalAlign=middle;whiteSpace=wrap;rounded=0;fontFamily=Times New Roman;fontSize=30;movable=1;resizable=1;rotatable=1;deletable=1;editable=1;connectable=1;rotation=90;locked=0;" parent="lNCHyk-WGEvY0NX4Fzwx-10" vertex="1">
          <mxGeometry x="-15" y="15" width="60" height="30" as="geometry" />
        </mxCell>
        <mxCell id="lNCHyk-WGEvY0NX4Fzwx-12" value="&lt;font style=&quot;font-size: 40px;&quot;&gt;...&lt;/font&gt;" style="text;html=1;strokeColor=none;fillColor=none;align=center;verticalAlign=middle;whiteSpace=wrap;rounded=0;fontFamily=Times New Roman;fontSize=30;movable=1;resizable=1;rotatable=1;deletable=1;editable=1;connectable=1;rotation=90;locked=0;" parent="lNCHyk-WGEvY0NX4Fzwx-10" vertex="1">
          <mxGeometry x="-15" y="224" width="60" height="30" as="geometry" />
        </mxCell>
        <mxCell id="lNCHyk-WGEvY0NX4Fzwx-13" value="" style="group" parent="1" vertex="1" connectable="0">
          <mxGeometry x="-520" y="1160" width="30" height="269" as="geometry" />
        </mxCell>
        <mxCell id="lNCHyk-WGEvY0NX4Fzwx-14" value="&lt;font style=&quot;font-size: 40px;&quot;&gt;...&lt;/font&gt;" style="text;html=1;strokeColor=none;fillColor=none;align=center;verticalAlign=middle;whiteSpace=wrap;rounded=0;fontFamily=Times New Roman;fontSize=30;movable=1;resizable=1;rotatable=1;deletable=1;editable=1;connectable=1;rotation=90;locked=0;" parent="lNCHyk-WGEvY0NX4Fzwx-13" vertex="1">
          <mxGeometry x="-15" y="15" width="60" height="30" as="geometry" />
        </mxCell>
        <mxCell id="lNCHyk-WGEvY0NX4Fzwx-15" value="&lt;font style=&quot;font-size: 40px;&quot;&gt;...&lt;/font&gt;" style="text;html=1;strokeColor=none;fillColor=none;align=center;verticalAlign=middle;whiteSpace=wrap;rounded=0;fontFamily=Times New Roman;fontSize=30;movable=1;resizable=1;rotatable=1;deletable=1;editable=1;connectable=1;rotation=90;locked=0;" parent="lNCHyk-WGEvY0NX4Fzwx-13" vertex="1">
          <mxGeometry x="-15" y="224" width="60" height="30" as="geometry" />
        </mxCell>
        <mxCell id="lNCHyk-WGEvY0NX4Fzwx-16" value="" style="group" parent="1" vertex="1" connectable="0">
          <mxGeometry x="-250" y="1158.75" width="30" height="269" as="geometry" />
        </mxCell>
        <mxCell id="lNCHyk-WGEvY0NX4Fzwx-17" value="&lt;font style=&quot;font-size: 40px;&quot;&gt;...&lt;/font&gt;" style="text;html=1;strokeColor=none;fillColor=none;align=center;verticalAlign=middle;whiteSpace=wrap;rounded=0;fontFamily=Times New Roman;fontSize=30;movable=1;resizable=1;rotatable=1;deletable=1;editable=1;connectable=1;rotation=90;locked=0;" parent="lNCHyk-WGEvY0NX4Fzwx-16" vertex="1">
          <mxGeometry x="-15" y="15" width="60" height="30" as="geometry" />
        </mxCell>
        <mxCell id="lNCHyk-WGEvY0NX4Fzwx-18" value="&lt;font style=&quot;font-size: 40px;&quot;&gt;...&lt;/font&gt;" style="text;html=1;strokeColor=none;fillColor=none;align=center;verticalAlign=middle;whiteSpace=wrap;rounded=0;fontFamily=Times New Roman;fontSize=30;movable=1;resizable=1;rotatable=1;deletable=1;editable=1;connectable=1;rotation=90;locked=0;" parent="lNCHyk-WGEvY0NX4Fzwx-16" vertex="1">
          <mxGeometry x="-15" y="224" width="60" height="30" as="geometry" />
        </mxCell>
        <mxCell id="lNCHyk-WGEvY0NX4Fzwx-19" value="" style="group;movable=1;resizable=1;rotatable=1;deletable=1;editable=1;locked=0;connectable=1;" parent="1" vertex="1" connectable="0">
          <mxGeometry x="-350" y="1560" width="360" height="120" as="geometry" />
        </mxCell>
        <mxCell id="lNCHyk-WGEvY0NX4Fzwx-20" value="&lt;font style=&quot;font-size: 40px;&quot;&gt;全连接层&lt;/font&gt;" style="text;html=1;strokeColor=none;fillColor=none;align=center;verticalAlign=middle;whiteSpace=wrap;rounded=0;fontFamily=宋体;fontSize=50;movable=1;resizable=1;rotatable=1;deletable=1;editable=1;locked=0;connectable=1;" parent="lNCHyk-WGEvY0NX4Fzwx-19" vertex="1">
          <mxGeometry x="-10" y="-20" width="287" height="120" as="geometry" />
        </mxCell>
        <mxCell id="lNCHyk-WGEvY0NX4Fzwx-21" value="&lt;span style=&quot;color: rgb(0, 0, 0); font-family: &amp;quot;Times New Roman&amp;quot;; font-style: normal; font-variant-ligatures: normal; font-variant-caps: normal; font-weight: 400; letter-spacing: normal; orphans: 2; text-align: center; text-indent: 0px; text-transform: none; widows: 2; word-spacing: 0px; -webkit-text-stroke-width: 0px; background-color: rgb(248, 249, 250); text-decoration-thickness: initial; text-decoration-style: initial; text-decoration-color: initial; float: none; display: inline !important;&quot;&gt;&lt;font style=&quot;font-size: 40px;&quot;&gt;$$N_l$$&lt;/font&gt;&lt;/span&gt;" style="text;whiteSpace=wrap;html=1;movable=1;resizable=1;rotatable=1;deletable=1;editable=1;locked=0;connectable=1;" parent="lNCHyk-WGEvY0NX4Fzwx-19" vertex="1">
          <mxGeometry x="214" y="-27" width="140" height="60" as="geometry" />
        </mxCell>
      </root>
    </mxGraphModel>
  </diagram>
</mxfile>
